<?xml version="1.0" encoding="UTF-8"?>
<svg xmlns="http://www.w3.org/2000/svg" viewBox="0 0 500 500" width="500" height="500">
  <rect width="500" height="500" fill="#ffffff"/>
  <g fill="#000000">
    <path d="M 151.3,55.1 L 258.2,55.3 L 274.2,56.6 L 289.9,60.4 L 305.6,69.5 L 325.1,89.3 L 333.2,107.0 L 335.0,124.2 L 332.7,134.6 L 326.6,144.5 L 314.0,154.1 L 299.0,160.2 L 272.7,164.8 L 197.9,165.3 L 177.7,171.8 L 171.8,184.0 L 171.3,192.4 L 173.6,198.4 L 179.2,203.5 L 193.1,208.3 L 241.5,213.4 L 250.6,217.7 L 258.2,225.0 L 264.3,233.9 L 267.6,244.0 L 267.4,271.2 L 258.5,298.8 L 251.4,309.2 L 242.3,317.8 L 221.5,326.4 L 183.0,327.6 L 182.0,374.0 L 171.6,415.0 L 164.0,429.0 L 153.4,440.1 L 145.5,444.2 L 134.9,444.9 L 116.9,438.1 L 99.1,424.9 L 88.5,411.5 L 81.9,392.7 L 79.9,374.8 L 79.9,131.3 L 85.2,100.2 L 97.1,76.9 L 106.0,68.2 L 118.9,60.4 L 142.7,55.3"/>
    <path d="M 388.2,367.4 L 399.1,368.9 L 412.5,379.1 L 419.3,391.0 L 419.6,403.4 L 413.8,417.1 L 400.1,430.7 L 387.4,436.8 L 373.7,437.6 L 363.1,433.0 L 356.5,425.4 L 352.5,415.0 L 352.2,402.4 L 355.3,392.2 L 362.6,381.1 L 373.2,372.0 L 385.4,367.7"/>
  </g>
</svg>
