<?xml version="1.0" encoding="UTF-8"?>
<svg version="1.1" xmlns="http://www.w3.org/2000/svg" width="500" height="500">
<path d="M0 0 C165 0 330 0 500 0 C500 165 500 330 500 500 C335 500 170 500 0 500 C0 335 0 170 0 0 Z " fill="#F5F3EF" transform="translate(0,0)"/>
<path d="M0 0 C1.78333562 -0.00322323 3.566671 -0.00658805 5.3500061 -0.01008606 C9.09043995 -0.0160602 12.83085078 -0.01792822 16.57128906 -0.01733398 C20.35096085 -0.0172534 24.13050972 -0.02408804 27.91015625 -0.0378418 C124.66623763 -0.38452505 124.66623763 -0.38452505 152.9140625 27.16796875 C163.00283657 38.63404986 167.50655618 51.16238984 167.18359375 66.30859375 C166.56888502 75.11051011 163.4205722 81.77840153 157.296875 88.10546875 C138.63928219 104.25499171 112.11554532 106.41232446 88.54282761 106.21256828 C86.37999542 106.19484118 84.21724032 106.18477555 82.05435181 106.176651 C75.91441596 106.15248233 69.7745858 106.11666593 63.63476562 106.07202148 C59.85377295 106.04505551 56.0728383 106.02813731 52.29176712 106.01715279 C50.86539168 106.01100411 49.43902671 106.00107758 48.01270676 105.9870739 C37.61614813 105.8858084 28.15809679 105.98229098 18.9140625 111.16796875 C17.4290625 111.66296875 17.4290625 111.66296875 15.9140625 112.16796875 C14.80563012 114.0249529 14.80563012 114.0249529 13.9140625 116.16796875 C13.56085938 116.74675781 13.20765625 117.32554687 12.84375 117.921875 C9.55856458 123.55535963 8.97623229 128.73149197 9.9140625 135.16796875 C12.44675367 141.11428714 17.17326438 143.70380035 22.9140625 146.16796875 C29.43601295 148.53260262 35.96732003 148.70831921 42.8515625 149.10546875 C82.44231456 151.76091374 82.44231456 151.76091374 95.9140625 167.16796875 C105.18676325 180.04914974 103.86808747 195.56507817 101.59375 210.55078125 C98.57979613 226.59055874 91.62201646 242.8144841 78.2890625 252.79296875 C68.76860615 259.19763939 59.31210633 262.36658966 47.9765625 262.35546875 C46.71090454 262.35426025 46.71090454 262.35426025 45.41967773 262.35302734 C37.06943834 262.27205725 28.4410118 262.09776551 20.9140625 258.16796875 C20.92453613 259.13395996 20.93500977 260.09995117 20.94580078 261.09521484 C21.31301769 298.32926068 21.31301769 298.32926068 18.9140625 311.16796875 C18.72569824 312.18262207 18.53733398 313.19727539 18.34326172 314.24267578 C14.26868433 335.48236422 9.52232937 358.71620957 -9.0859375 372.16796875 C-15.56113715 376.18259253 -22.65021748 376.32513401 -30.0859375 375.16796875 C-46.59674162 369.71080567 -63.25249669 357.15231741 -71.40761471 341.76497746 C-78.38815256 326.80417519 -78.79741041 311.98474828 -78.68530273 295.75219727 C-78.68717075 293.34690091 -78.69121588 290.94160543 -78.69725037 288.53631592 C-78.70613334 282.72493988 -78.69212462 276.9139612 -78.6671121 271.10263938 C-78.63893115 264.31042732 -78.63783825 257.51828587 -78.63766909 250.7260251 C-78.63648615 238.59193059 -78.61164539 226.45800274 -78.57299805 214.32397461 C-78.53567146 202.59674073 -78.5144023 190.86962787 -78.51147461 179.14233398 C-78.5112918 178.42001776 -78.51110899 177.69770154 -78.51092064 176.95349694 C-78.51074167 176.23232959 -78.5105627 175.51116224 -78.5103783 174.76814133 C-78.51001283 173.31551047 -78.50964045 171.86287961 -78.50926113 170.41024876 C-78.50907562 169.69355331 -78.5088901 168.97685786 -78.50869897 168.23844436 C-78.50511249 156.99694918 -78.48665203 145.75547221 -78.46676789 134.51399584 C-78.45979243 130.46552737 -78.45498287 126.41706322 -78.45180654 122.36859006 C-78.44623696 115.33530153 -78.43036208 108.30213039 -78.40361977 101.26889038 C-78.39624932 98.94671885 -78.3921124 96.62453418 -78.39163971 94.302351 C-78.37777823 59.69385955 -78.37777823 59.69385955 -73.8984375 44.79296875 C-73.57806519 43.69384155 -73.57806519 43.69384155 -73.2512207 42.57250977 C-68.3877818 26.77883243 -59.61824286 15.15138114 -45.0859375 7.16796875 C-30.90944912 -0.25670601 -15.61998467 0.00668746 0 0 Z " fill="#000000" transform="translate(167.0859375,45.83203125)"/>
<path d="M0 0 C7.30171792 4.86319353 15.01811071 12.50994285 17.1875 21.1875 C18.37501221 31.13484258 15.8451505 38.88547724 9.9375 46.875 C2.38431267 55.96769048 -7.63876581 63.93891188 -19.8125 65.1875 C-27.70918302 65.27905575 -33.52603853 64.17370209 -39.4296875 58.68359375 C-46.25954736 51.36103255 -48.42175237 44.05838407 -48.28295898 34.13867188 C-47.74943867 22.03985384 -41.56560656 13.45310773 -32.9375 5.375 C-23.79008394 -2.11716934 -11.21686492 -5.45900708 0 0 Z " fill="#010101" transform="translate(398.8125,349.8125)"/>
</svg>
